<svg width="432" height="432" viewBox="0 0 432 432" fill="none" xmlns="http://www.w3.org/2000/svg">
<path d="M310.176 259.2C311.904 244.944 313.2 230.688 313.2 216C313.2 201.312 311.904 187.056 310.176 172.8H383.184C386.64 186.624 388.8 201.096 388.8 216C388.8 230.904 386.64 245.376 383.184 259.2M271.944 379.296C284.904 355.32 294.84 329.4 301.752 302.4H365.472C344.545 338.435 311.345 365.731 271.944 379.296ZM266.544 259.2H165.456C163.296 244.944 162 230.688 162 216C162 201.312 163.296 186.84 165.456 172.8H266.544C268.488 186.84 270 201.312 270 216C270 230.688 268.488 244.944 266.544 259.2ZM216 387.936C198.072 362.016 183.6 333.288 174.744 302.4H257.256C248.4 333.288 233.928 362.016 216 387.936ZM129.6 129.6H66.528C87.2393 93.4678 120.416 66.1281 159.84 52.704C146.88 76.68 137.16 102.6 129.6 129.6ZM66.528 302.4H129.6C137.16 329.4 146.88 355.32 159.84 379.296C120.498 365.724 87.3687 338.423 66.528 302.4ZM48.816 259.2C45.36 245.376 43.2 230.904 43.2 216C43.2 201.096 45.36 186.624 48.816 172.8H121.824C120.096 187.056 118.8 201.312 118.8 216C118.8 230.688 120.096 244.944 121.824 259.2M216 43.848C233.928 69.768 248.4 98.712 257.256 129.6H174.744C183.6 98.712 198.072 69.768 216 43.848ZM365.472 129.6H301.752C294.992 102.847 284.981 77.0234 271.944 52.704C311.688 66.312 344.736 93.744 365.472 129.6ZM216 0C96.552 0 0 97.2 0 216C0 273.287 22.7571 328.227 63.2649 368.735C83.3224 388.793 107.134 404.703 133.34 415.558C159.547 426.413 187.634 432 216 432C273.287 432 328.227 409.243 368.735 368.735C409.243 328.227 432 273.287 432 216C432 187.634 426.413 159.547 415.558 133.34C404.703 107.134 388.793 83.3224 368.735 63.2649C348.678 43.2075 324.866 27.297 298.66 16.442C272.453 5.58701 244.366 0 216 0Z" fill="black" fill-opacity="0.1"/>
</svg>
