<svg width="629" height="566" viewBox="0 0 629 566" fill="none" xmlns="http://www.w3.org/2000/svg">
<path d="M5.3339e-05 125.667V62.8334C5.3339e-05 45.5542 6.15772 30.757 18.4731 18.4416C30.7884 6.1263 45.5752 -0.0208911 62.8334 5.3339e-05H565.5C582.779 5.3339e-05 597.576 6.15772 609.892 18.4731C622.207 30.7884 628.354 45.5752 628.333 62.8334V125.667H565.5V62.8334H62.8334V125.667H5.3339e-05ZM188.5 565.5V502.667H62.8334C45.5542 502.667 30.757 496.509 18.4416 484.194C6.1263 471.878 -0.0208911 457.092 5.3339e-05 439.833V377H62.8334V439.833H565.5V377H628.333V439.833C628.333 457.113 622.176 471.91 609.86 484.225C597.545 496.54 582.758 502.688 565.5 502.667H439.833V565.5H188.5ZM87.9667 251.333L169.65 169.65L125.667 125.667L5.3339e-05 251.333L125.667 377L169.65 333.017L87.9667 251.333ZM540.367 251.333L458.683 333.017L502.667 377L628.333 251.333L502.667 125.667L458.683 169.65L540.367 251.333Z" fill="black" fill-opacity="0.1"/>
</svg>
