<svg width="40" height="40" viewBox="0 0 40 40" fill="none" xmlns="http://www.w3.org/2000/svg">
<g clip-path="url(#clip0_38_168)">
<path d="M20 0C14.6969 0 9.60625 2.10844 5.85938 5.85781C2.10863 9.60868 0.00103897 14.6956 0 20C0 25.3022 2.10938 30.3928 5.85938 34.1422C9.60625 37.8916 14.6969 40 20 40C25.3031 40 30.3937 37.8916 34.1406 34.1422C37.8906 30.3928 40 25.3022 40 20C40 14.6978 37.8906 9.60719 34.1406 5.85781C30.3937 2.10844 25.3031 0 20 0Z" fill="url(#paint0_linear_38_168)"/>
<path d="M9.05291 19.7891C14.8842 17.2491 18.7717 15.5744 20.7154 14.7653C26.2717 12.455 27.4248 12.0538 28.1779 12.0402C28.3435 12.0375 28.7123 12.0784 28.9529 12.273C29.1529 12.437 29.2092 12.6589 29.2373 12.8147C29.2623 12.9703 29.2967 13.325 29.2685 13.6019C28.9685 16.7644 27.6654 24.4388 27.0029 27.9809C26.7248 29.4797 26.1717 29.9822 25.6373 30.0312C24.4748 30.1381 23.5935 29.2638 22.4685 28.5266C20.7092 27.3725 19.7154 26.6544 18.006 25.5284C16.031 24.2272 17.3123 23.5119 18.4373 22.3431C18.731 22.0372 23.8498 17.3825 23.9467 16.9603C23.9592 16.9075 23.9717 16.7106 23.8529 16.6069C23.7373 16.5028 23.5654 16.5384 23.4404 16.5666C23.2623 16.6066 20.4529 18.4653 15.0029 22.1425C14.206 22.6906 13.4842 22.9578 12.8342 22.9438C12.1217 22.9284 10.7467 22.54 9.72479 22.2081C8.47479 21.8009 7.47791 21.5856 7.56541 20.8941C7.60916 20.5341 8.10603 20.1656 9.05291 19.7891Z" fill="white"/>
</g>
<defs>
<linearGradient id="paint0_linear_38_168" x1="2000" y1="0" x2="2000" y2="4000" gradientUnits="userSpaceOnUse">
<stop stop-color="#2AABEE"/>
<stop offset="1" stop-color="#229ED9"/>
</linearGradient>
<clipPath id="clip0_38_168">
<rect width="40" height="40" fill="white"/>
</clipPath>
</defs>
</svg>
