<svg width="30" height="38" viewBox="0 0 30 38" fill="none" xmlns="http://www.w3.org/2000/svg">
<path d="M3.88889 3.59556C3.74155 3.59556 3.60024 3.65869 3.49605 3.77107C3.39187 3.88346 3.33333 4.03588 3.33333 4.19482V27.0865C3.33333 27.3023 3.44 27.4988 3.61111 27.6067L14.4089 34.3232C14.4914 34.3747 14.5849 34.4024 14.6802 34.4036C14.7756 34.4049 14.8696 34.3797 14.9533 34.3304L26.3778 27.5779C26.4655 27.5262 26.5386 27.4499 26.5894 27.3571C26.6402 27.2643 26.6669 27.1584 26.6667 27.0506V4.19482C26.6667 4.03588 26.6081 3.88346 26.504 3.77107C26.3998 3.65869 26.2585 3.59556 26.1111 3.59556H3.88889ZM0 4.19482C0 1.87928 1.74222 0 3.88889 0H26.1111C28.2578 0 30 1.87928 30 4.19482V27.053C29.9997 27.8049 29.8121 28.5429 29.4567 29.1898C29.1014 29.8367 28.5913 30.3687 27.98 30.73L16.5556 37.4849C15.9696 37.8308 15.311 38.0081 14.6431 37.9997C13.9752 37.9913 13.3205 37.7975 12.7422 37.4369L1.94667 30.7204C1.35492 30.3525 0.863453 29.8229 0.521721 29.185C0.17999 28.547 4.7371e-05 27.8233 0 27.0865V4.19482ZM8.33333 10.1874C8.33333 9.71061 8.50893 9.25334 8.82149 8.91619C9.13405 8.57904 9.55797 8.38963 10 8.38963H20.2556C20.6976 8.38963 21.1215 8.57904 21.4341 8.91619C21.7466 9.25334 21.9222 9.71061 21.9222 10.1874V24.7997C21.9224 25.1335 21.8365 25.4608 21.674 25.7449C21.5115 26.029 21.2789 26.2586 21.0022 26.4082L15.8733 29.1743C15.6421 29.2988 15.3873 29.3636 15.1289 29.3636C14.8705 29.3636 14.6156 29.2988 14.3844 29.1743L9.25556 26.4082C8.97882 26.2591 8.74599 26.03 8.58312 25.7463C8.42024 25.4627 8.33376 25.1358 8.33333 24.8021V23.4167C8.33333 22.9399 8.50893 22.4826 8.82149 22.1454C9.13405 21.8083 9.55797 21.6189 10 21.6189C10.442 21.6189 10.866 21.8083 11.1785 22.1454C11.4911 22.4826 11.6667 22.9399 11.6667 23.4167V23.6899L15.1289 25.5548L18.5889 23.6899V19.6845H12.7778C12.3358 19.6845 11.9118 19.4951 11.5993 19.1579C11.2867 18.8208 11.1111 18.3635 11.1111 17.8867C11.1111 17.4099 11.2867 16.9526 11.5993 16.6155C11.9118 16.2783 12.3358 16.0889 12.7778 16.0889H18.5889V11.9852H10C9.55797 11.9852 9.13405 11.7958 8.82149 11.4586C8.50893 11.1215 8.33333 10.6642 8.33333 10.1874Z" fill="#0095E9"/>
</svg>
