<svg width="34" height="41" viewBox="0 0 34 41" fill="none" xmlns="http://www.w3.org/2000/svg">
<path d="M30.1019 2H3.89806C3.63382 2.00003 3.37251 2.05573 3.13083 2.16353C2.88916 2.27134 2.67245 2.42887 2.49457 2.62605C2.31669 2.82322 2.18156 3.05571 2.09783 3.30861C2.0141 3.56152 1.98361 3.82928 2.00832 4.09477L4.55961 31.5518C4.59051 31.886 4.70786 32.2061 4.89993 32.4801C5.09199 32.7541 5.35201 32.9724 5.65397 33.1131L16.2046 38.0267C16.454 38.1428 16.7254 38.203 17 38.203C17.2746 38.203 17.546 38.1428 17.7954 38.0267L28.346 33.1131C28.6482 32.9725 28.9084 32.7543 29.1006 32.4803C29.2929 32.2063 29.4104 31.8861 29.4413 31.5518L31.9917 4.09477C32.0164 3.82928 31.9859 3.56152 31.9022 3.30861C31.8184 3.05571 31.6833 2.82322 31.5054 2.62605C31.3276 2.42887 31.1108 2.27134 30.8692 2.16353C30.6275 2.05573 30.3662 2.00003 30.1019 2Z" stroke="#FF5C00" stroke-width="4"/>
<path d="M24.593 8.70477H9.40674L10.3559 17.3252H23.6439L22.6947 27.8613L16.9999 30.7348L11.305 27.8613L10.8305 23.0722" stroke="#FF5C00" stroke-width="4" stroke-linecap="round" stroke-linejoin="round"/>
</svg>
