<svg width="30" height="30" viewBox="0 0 30 30" fill="none" xmlns="http://www.w3.org/2000/svg">
<path d="M0 0V30H30V0H0ZM16.3264 23.3968C16.3264 26.3164 14.6121 27.6493 12.1146 27.6493C9.85821 27.6493 8.55214 26.4846 7.8825 25.0714L10.1796 23.685C10.6221 24.4682 11.0239 25.1314 11.9946 25.1314C12.9182 25.1314 13.5075 24.7693 13.5075 23.3571V13.7743H16.3264V23.3968ZM22.995 27.6493C20.3764 27.6493 18.6825 26.4043 17.8586 24.7693L20.1557 23.4439C20.7589 24.4286 21.5486 25.1582 22.935 25.1582C24.0996 25.1582 24.8507 24.5754 24.8507 23.7654C24.8507 22.8011 24.0868 22.4593 22.7946 21.8904L22.0918 21.5893C20.0561 20.7257 18.7104 19.6339 18.7104 17.3368C18.7104 15.2207 20.3239 13.6136 22.8354 13.6136C24.63 13.6136 25.9157 14.2361 26.8404 15.87L24.6439 17.2768C24.1618 16.4132 23.6389 16.0714 22.8289 16.0714C22.0061 16.0714 21.4832 16.5943 21.4832 17.2768C21.4832 18.1211 22.0061 18.4618 23.2179 18.9911L23.9207 19.2921C26.3186 20.3164 27.6643 21.3686 27.6643 23.7246C27.6643 26.2564 25.6682 27.6482 22.9961 27.6482L22.995 27.6493Z" fill="#FFE600"/>
</svg>
