<svg width="30" height="34" viewBox="0 0 30 34" fill="none" xmlns="http://www.w3.org/2000/svg">
<path d="M28.8143 7.53365L16.4507 0.334042C15.6709 -0.111347 14.6557 -0.111347 13.8698 0.334042L1.37411 7.53365C0.569439 7.99788 0 8.87038 0 9.80362V24.1837C0 25.117 0.584299 25.9897 1.38897 26.4565L4.69037 28.337C6.26832 29.1165 6.82598 29.1165 7.54402 29.1165C9.88037 29.1165 11.215 27.6996 11.215 25.2283V11.0315C11.215 10.8311 11.1109 10.5327 10.9147 10.5327H9.33813C9.1385 10.5327 8.69159 10.8311 8.69159 11.0313V25.228C8.69159 26.3235 7.70355 27.4136 5.85701 26.4877L2.4457 24.5158C2.32682 24.4511 2.24299 24.3209 2.24299 24.1837V9.80362C2.24299 9.66809 2.3986 9.532 2.51832 9.46255L14.9736 2.27531C15.09 2.20923 15.261 2.20923 15.3771 2.27531L27.6805 9.46086C27.7982 9.532 27.7567 9.66387 27.7567 9.80362V24.1837C27.7567 24.3209 27.808 24.4545 27.6917 24.5206L15.3311 31.712C15.2251 31.7759 15.0936 31.7759 14.9776 31.712L11.8074 29.8144C11.7118 29.7587 11.5982 29.7387 11.5065 29.7902C10.6245 30.2915 10.4619 30.3582 9.63449 30.6458C9.43093 30.7169 9.13065 30.8404 9.74944 31.1882L13.8984 33.6497C14.2945 33.8791 14.7439 33.9999 15.2013 34C15.6617 34 16.1125 33.8802 16.5098 33.6497L28.814 26.4565C29.6187 25.9864 30 25.117 30 24.1837V9.80362C30 8.87038 29.6187 8.00013 28.8143 7.53365ZM19.0402 21.905C15.7525 21.905 15.0283 20.9954 14.7869 19.3559C14.7589 19.1793 14.6094 18.9681 14.4303 18.9681H12.8235C12.6247 18.9681 12.4649 19.2099 12.4649 19.4084C12.4649 21.5077 13.6029 24.0513 19.0405 24.0513C22.9766 24.0513 25.2334 22.5175 25.2334 19.8029C25.2334 17.1115 23.4202 16.4052 19.6029 15.8985C15.7444 15.387 15.3524 15.1286 15.3524 14.2221C15.3524 13.4747 15.6844 12.4779 18.5414 12.4779C21.0942 12.4779 22.0351 13.0273 22.4223 14.7529C22.4554 14.9152 22.6032 15.0316 22.77 15.0316H24.3833C24.4825 15.0316 24.5773 14.9914 24.6468 14.9203C24.7141 14.8438 24.7497 14.7479 24.7407 14.645C24.4909 11.6735 22.5224 10.2887 18.5411 10.2887C14.9997 10.2887 12.8871 11.7885 12.8871 14.3025C12.8871 17.0294 14.9891 17.7829 18.3886 18.1201C22.4554 18.5199 22.7717 19.116 22.7717 19.9182C22.7717 21.3115 21.6564 21.905 19.0402 21.905Z" fill="#83CD29"/>
</svg>
