<svg width="34" height="30" viewBox="0 0 34 30" fill="none" xmlns="http://www.w3.org/2000/svg">
<g clip-path="url(#clip0_38_16)">
<path d="M27.9548 9.71366C27.5929 9.59067 27.228 9.47673 26.8604 9.37195C26.9222 9.12195 26.979 8.87498 27.0295 8.63235C27.858 4.648 27.3163 1.43813 25.4664 0.381293C23.6927 -0.631865 20.7919 0.424582 17.8624 2.9505C17.5736 3.19989 17.2913 3.45646 17.0157 3.71998C16.8311 3.54475 16.6434 3.37292 16.4524 3.20458C13.3821 0.503793 10.3045 -0.634497 8.45657 0.425372C6.68445 1.44169 6.15971 4.45919 6.90559 8.23524C6.97979 8.60922 7.06358 8.98127 7.15687 9.35103C6.72124 9.47366 6.30089 9.60419 5.8986 9.74313C2.29885 10.9866 0 12.9351 0 14.9563C0 17.0438 2.46792 19.1376 6.21722 20.4072C6.52118 20.5097 6.82767 20.6047 7.13641 20.6921C7.03614 21.0903 6.94712 21.4913 6.86946 21.8944C6.15838 25.605 6.71367 28.5512 8.48101 29.561C10.3064 30.6039 13.3701 29.5321 16.3532 26.9485C16.5951 26.7385 16.8317 26.5225 17.0627 26.3008C17.3612 26.5861 17.6677 26.8631 17.9818 27.1316C20.8715 29.595 23.7254 30.5897 25.491 29.5771C27.3146 28.5312 27.9074 25.3662 27.1378 21.5155C27.0772 21.2138 27.0092 20.9137 26.934 20.6152C27.1491 20.5521 27.3603 20.4871 27.5662 20.4195C31.4639 19.1401 34 17.0717 34 14.9563C34 12.9277 31.6269 10.966 27.9548 9.71366ZM27.1094 19.0537C26.9235 19.1146 26.7328 19.1734 26.5383 19.2306C26.108 17.881 25.5274 16.446 24.8167 14.9633C25.4948 13.5159 26.0532 12.0992 26.4714 10.7584C26.8192 10.8581 27.1567 10.9633 27.4821 11.0742C30.6284 12.1473 32.5476 13.7338 32.5476 14.9563C32.5476 16.2584 30.4749 17.9488 27.1094 19.0537ZM25.713 21.795C26.0533 23.4976 26.1018 25.0371 25.8764 26.2406C25.674 27.3221 25.2668 28.043 24.7632 28.3318C23.6918 28.9463 21.4003 28.1476 18.9291 26.0408C18.637 25.7912 18.3519 25.5337 18.0742 25.2684C19.0323 24.2304 19.9897 23.0237 20.9242 21.6834C22.5679 21.5389 24.1207 21.3026 25.529 20.9801C25.5968 21.2503 25.6582 21.522 25.713 21.795ZM11.5913 28.2256C10.5445 28.5918 9.71072 28.6023 9.2067 28.3144C8.13423 27.7017 7.68838 25.336 8.29653 22.1629C8.36882 21.7879 8.4516 21.415 8.54476 21.0446C9.93743 21.3498 11.479 21.5693 13.1265 21.7017C14.0674 23.0131 15.0524 24.2185 16.0452 25.2741C15.8342 25.4763 15.6183 25.6734 15.3975 25.8651C14.0783 27.0075 12.7564 27.818 11.5913 28.2256ZM6.68711 19.0456C5.02921 18.4842 3.66005 17.7546 2.72159 16.9584C1.87823 16.243 1.45257 15.5326 1.45257 14.9563C1.45257 13.7297 3.29827 12.1652 6.37673 11.1019C6.75033 10.973 7.14133 10.8513 7.54707 10.7371C7.9726 12.1081 8.53068 13.5417 9.20417 14.9913C8.52191 16.4623 7.95587 17.9188 7.52622 19.306C7.2444 19.2261 6.96462 19.1392 6.68711 19.0456ZM8.33106 7.95879C7.6921 4.72366 8.11644 2.28327 9.18438 1.67077C10.3218 1.0184 12.837 1.94853 15.4881 4.28063C15.6609 4.43305 15.831 4.58856 15.9982 4.74708C15.0103 5.798 14.0343 6.99445 13.1018 8.29813C11.5028 8.44498 9.97209 8.68077 8.56481 8.99669C8.47811 8.65277 8.40017 8.3066 8.33106 7.95879ZM22.9971 11.5467C22.6648 10.9779 22.32 10.4162 21.9632 9.86208C23.048 9.998 24.0874 10.1784 25.0634 10.3989C24.7705 11.3294 24.4052 12.3022 23.9753 13.2996C23.6611 12.7089 23.3349 12.1245 22.9971 11.5467ZM17.0163 5.7755C17.6862 6.49458 18.3572 7.29735 19.0172 8.1684C17.6784 8.10576 16.3374 8.1055 14.9986 8.16761C15.6593 7.30458 16.3359 6.50287 17.0163 5.7755ZM10.9971 11.5566C10.6636 12.1297 10.3435 12.7105 10.0373 13.2984C9.61443 12.3046 9.25252 11.3273 8.95701 10.3837C9.92707 10.1687 10.9615 9.99287 12.0395 9.85945C11.6787 10.4169 11.3311 10.9829 10.9971 11.5566ZM12.0704 20.1555C10.9568 20.0323 9.90675 19.8656 8.93695 19.6564C9.23711 18.6959 9.60699 17.6979 10.039 16.6827C10.3465 17.2711 10.6678 17.8522 11.0029 18.4256C11.3474 19.0151 11.7041 19.5925 12.0704 20.1555ZM17.0564 24.2384C16.3679 23.5026 15.6813 22.6885 15.0107 21.813C15.6618 21.8383 16.3254 21.8512 17 21.8512C17.693 21.8512 18.3781 21.8358 19.0524 21.806C18.3903 22.6973 17.7218 23.5126 17.0564 24.2384ZM23.989 16.6309C24.4435 17.6572 24.8265 18.65 25.1306 19.5941C24.1449 19.8169 23.0806 19.9964 21.9591 20.1297C22.3184 19.5653 22.6664 18.9939 23.0029 18.4158C23.3449 17.8281 23.6737 17.233 23.989 16.6309ZM21.7447 17.6968C21.2297 18.5832 20.6857 19.4527 20.1137 20.3041C19.0774 20.3768 18.0389 20.4129 17 20.4123C15.9419 20.4123 14.9127 20.3797 13.9217 20.316C13.3347 19.4667 12.7803 18.5956 12.2598 17.7047C11.7417 16.8185 11.2579 15.9132 10.8092 14.9906C11.2568 14.0679 11.7392 13.1621 12.2555 12.2752L12.2554 12.2754C12.7715 11.3883 13.3214 10.521 13.904 9.67524C14.9151 9.59945 15.952 9.55998 16.9999 9.55998C18.0525 9.55998 19.0909 9.59984 20.1017 9.67616C20.6784 10.5206 21.2248 11.385 21.7399 12.2676C22.258 13.1525 22.7468 14.0539 23.2057 14.9702C22.7515 15.896 22.2642 16.8054 21.7447 17.6968ZM24.741 1.62787C25.8794 2.2784 26.3222 4.90169 25.6069 8.34182C25.5612 8.56129 25.51 8.78484 25.4542 9.01155C24.0434 8.68892 22.5117 8.44906 20.908 8.29998C19.9738 6.98195 19.0057 5.78366 18.0339 4.74629C18.2886 4.50307 18.5494 4.26616 18.8159 4.03577C21.3261 1.87169 23.6721 1.01721 24.741 1.62787ZM17 11.9484C18.6768 11.9484 20.0361 13.2951 20.0361 14.9563C20.0361 16.6175 18.6768 17.9642 17 17.9642C15.3232 17.9642 13.9639 16.6175 13.9639 14.9563C13.9639 13.2951 15.3232 11.9484 17 11.9484Z" fill="#00D8FF"/>
</g>
<defs>
<clipPath id="clip0_38_16">
<rect width="34" height="30" fill="white"/>
</clipPath>
</defs>
</svg>
