<svg width="32" height="30" viewBox="0 0 32 30" fill="none" xmlns="http://www.w3.org/2000/svg">
<g clip-path="url(#clip0_38_14)">
<path d="M22.1726 20.8688C23.3535 20.7486 24.2494 19.7473 24.2086 18.5455C24.168 17.3439 23.1499 16.3826 21.9282 16.3826H21.8469C20.5844 16.4227 19.6071 17.4641 19.6479 18.7057C19.6886 19.3066 19.9329 19.8273 20.2994 20.1878C18.9149 22.8716 16.7974 24.8342 13.6211 26.4765C11.4629 27.598 9.22325 27.9986 6.98362 27.7183C5.15112 27.4779 3.72587 26.6769 2.82987 25.3549C1.52687 23.3923 1.40475 21.2693 2.50425 19.1464C3.278 17.6243 4.4995 16.5027 5.27325 15.9419C5.11037 15.4212 4.866 14.54 4.74387 13.8992C-1.16075 18.105 -0.549876 23.7928 1.24187 26.4765C2.58562 28.4793 5.314 29.721 8.32737 29.721C9.14175 29.721 9.95612 29.6409 10.7706 29.4407C15.983 28.4393 19.933 25.395 22.1726 20.8688ZM29.3396 15.902C26.2447 12.337 21.684 10.3743 16.4716 10.3743H15.8201C15.4536 9.65336 14.6799 9.17262 13.8247 9.17262H13.7432C12.481 9.2127 11.5037 10.2541 11.5444 11.4959C11.5851 12.6975 12.6031 13.6589 13.8247 13.6589H13.9061C14.802 13.6188 15.5757 13.058 15.9015 12.2969H16.6345C19.7294 12.2969 22.6612 13.1781 25.3082 14.9005C27.3442 16.2224 28.8102 17.9448 29.6246 20.0276C30.3169 21.7099 30.2761 23.3522 29.5431 24.7542C28.403 26.8771 26.4891 28.0387 23.9644 28.0387C22.3355 28.0387 20.7881 27.558 19.9736 27.1975C19.5257 27.598 18.7112 28.2389 18.1411 28.6395C19.8922 29.4406 21.684 29.8812 23.3942 29.8812C27.3035 29.8812 30.1947 27.7582 31.2942 25.6354C32.4751 23.3121 32.3936 19.3066 29.3396 15.902ZM8.65312 21.5496C8.69387 22.7513 9.71187 23.7125 10.9335 23.7125H11.015C12.2774 23.6726 13.2546 22.6311 13.2139 21.3894C13.1732 20.1877 12.1551 19.2264 10.9335 19.2264H10.8521C10.7706 19.2264 10.6484 19.2264 10.5671 19.2664C8.8975 16.5427 8.20525 13.5787 8.44962 10.3742C8.61237 7.9709 9.42687 5.88799 10.8521 4.16557C12.033 2.68352 14.3134 1.96254 15.8609 1.92258C20.1772 1.84242 22.0096 7.12967 22.1319 9.25266C22.6612 9.37279 23.5571 9.65324 24.168 9.85352C23.6792 3.36467 19.6071 0 15.698 0C12.033 0 8.65312 2.60361 7.30925 6.44889C5.43612 11.5759 6.65775 16.5027 8.93812 20.3881C8.73462 20.6684 8.61237 21.1089 8.65312 21.5496Z" fill="#764ABC"/>
</g>
<defs>
<clipPath id="clip0_38_14">
<rect width="32" height="30" fill="white"/>
</clipPath>
</defs>
</svg>
